<?xml version="1.0" encoding="iso-8859-1"?>
<!-- Generator: Adobe Illustrator 19.0.0, SVG Export Plug-In . SVG Version: 6.00 Build 0)  -->
<svg version="1.1" id="Layer_1" xmlns="http://www.w3.org/2000/svg" xmlns:xlink="http://www.w3.org/1999/xlink" x="0px" y="0px"
	 viewBox="0 0 512 512" style="enable-background:new 0 0 512 512;" xml:space="preserve">
<path style="fill:#DCDBDE;" d="M15.53,323.631h292.07V143.78c0-1.934-1.573-3.507-3.507-3.507H15.53
	c-1.934,0-3.507,1.573-3.507,3.507v176.344C12.023,322.057,13.597,323.631,15.53,323.631z M39.577,291.568h240.47
	c2.486,0,4.509,2.023,4.509,4.509s-2.023,4.509-4.509,4.509H39.577c-2.486,0-4.509-2.023-4.509-4.509
	C35.068,293.59,37.091,291.568,39.577,291.568z M280.047,268.523H39.577c-2.486,0-4.509-2.023-4.509-4.509s2.023-4.509,4.509-4.509
	h240.47c2.486,0,4.509,2.023,4.509,4.509C284.556,266.5,282.533,268.523,280.047,268.523z M280.047,236.461H39.577
	c-2.486,0-4.509-2.023-4.509-4.509c0-2.486,2.023-4.509,4.509-4.509h240.47c2.486,0,4.509,2.023,4.509,4.509
	C284.556,234.438,282.533,236.461,280.047,236.461z M280.047,204.398H39.577c-2.486,0-4.509-2.023-4.509-4.509
	c0-2.486,2.023-4.509,4.509-4.509h240.47c2.486,0,4.509,2.023,4.509,4.509C284.556,202.375,282.533,204.398,280.047,204.398z
	 M280.047,172.335H39.577c-2.486,0-4.509-2.023-4.509-4.509c0-2.486,2.023-4.509,4.509-4.509h240.47
	c2.486,0,4.509,2.023,4.509,4.509C284.556,170.312,282.533,172.335,280.047,172.335z"/>
<path d="M280.047,160.312c4.148,0,7.515,3.367,7.515,7.515s-3.367,7.515-7.515,7.515H39.577c-4.148,0-7.515-3.367-7.515-7.515
	s3.367-7.515,7.515-7.515H280.047z"/>
<path d="M280.047,192.374c4.148,0,7.515,3.367,7.515,7.515s-3.367,7.515-7.515,7.515H39.577c-4.148,0-7.515-3.367-7.515-7.515
	s3.367-7.515,7.515-7.515H280.047z"/>
<path d="M280.047,224.437c4.148,0,7.515,3.367,7.515,7.515s-3.367,7.515-7.515,7.515H39.577c-4.148,0-7.515-3.367-7.515-7.515
	s3.367-7.515,7.515-7.515H280.047z"/>
<path d="M280.047,256.5c4.148,0,7.515,3.367,7.515,7.515c0,4.148-3.367,7.515-7.515,7.515H39.577c-4.148,0-7.515-3.367-7.515-7.515
	c0-4.148,3.367-7.515,7.515-7.515H280.047z"/>
<path d="M280.047,288.562c4.148,0,7.515,3.367,7.515,7.515c0,4.148-3.367,7.515-7.515,7.515H39.577
	c-4.148,0-7.515-3.367-7.515-7.515c0-4.148,3.367-7.515,7.515-7.515H280.047z"/>
<path style="fill:#EE8A68;" d="M499.977,264.847l-1.676-4.339h-81.987c-15.746,0-28.556-12.81-28.556-28.556v-40.078
	c0-2.486,2.023-4.509,4.509-4.509h77.923l-2.084-5.377c-4.059-10.568-14.395-17.669-25.72-17.669h-66.15
	c-6.353,0-11.522,5.169-11.522,11.523v147.789h43.585c26.224,0,48.631,19.59,52.119,45.568l0.407,3.033l3.025-0.461
	c0.199-0.03,0.388-0.046,0.559-0.046h32.063c1.934,0,3.507-1.573,3.507-3.507v-27.554h-11.522c-6.906,0-12.524-5.618-12.524-12.524
	v-8.016c0-6.906,5.618-12.524,12.524-12.524h11.522V264.847z"/>
<g>
	<path style="fill:#D67153;" d="M502.133,302.462v-33.588l-2.127-8.869h-39.076c5.897,35.593-15.029,78.47-15.029,78.47
		s14.577,20.423,16.348,31.555l0.508,3.195h34.953c2.439,0,4.423-1.984,4.423-4.423v-24.641L502.133,302.462L502.133,302.462z"/>
	<path style="fill:#D67153;" d="M442.76,189.668h27.786l-2.832-6.61l-0.094-0.203l0.021,0.033
		c-4.587-11.944-18.563-29.234-41.31-21.977C432.723,169.828,440.061,179.496,442.76,189.668z"/>
</g>
<path style="fill:#EDEDEE;" d="M485.448,317.898v12.468c0,0.406,0.374,0.78,0.78,0.78h13.248v-14.027h-13.248
	C485.822,317.118,485.448,317.492,485.448,317.898z"/>
<g>
	<path style="fill:#504B5A;" d="M396.775,231.952c0,10.773,8.765,19.538,19.538,19.538h78.521l-21.188-55.108h-76.871V231.952z"/>
	<path style="fill:#504B5A;" d="M408.297,332.648c-24.033,0-43.585,19.552-43.585,43.585s19.552,43.585,43.585,43.585
		s43.585-19.552,43.585-43.585S432.33,332.648,408.297,332.648z M428.838,376.234c0,11.326-9.214,20.54-20.54,20.54
		s-20.54-9.214-20.54-20.54s9.214-20.54,20.54-20.54c1.965,0,3.623,1.272,4.239,3.029c6.54,1.584,11.688,6.732,13.272,13.272
		C427.566,372.61,428.838,374.268,428.838,376.234z"/>
</g>
<path style="fill:#DCDBDE;" d="M412.537,358.722c-1.363-0.33-2.776-0.524-4.239-0.524c-9.944,0-18.035,8.091-18.035,18.035
	c0,9.944,8.091,18.035,18.035,18.035c9.944,0,18.035-8.091,18.035-18.035c0-1.463-0.194-2.877-0.524-4.239
	C424.225,365.453,419.077,360.306,412.537,358.722z"/>
<path style="fill:#736F7B;" d="M372.387,337.849l5.554-5.2H182.152l5.554,5.2c8.829,8.266,14.581,19.373,16.199,31.275l0.354,2.601
	h15.171v-3.507c0-11.326,9.214-20.54,20.54-20.54h48.094c11.326,0,20.54,9.214,20.54,20.54v3.507h47.232l0.354-2.601
	C357.806,357.221,363.559,346.115,372.387,337.849z"/>
<g>
	<polygon style="fill:#A7A5AC;" points="355.695,175.842 355.705,175.341 355.705,172.335 316.618,172.335 316.618,323.631 
		355.695,323.631 	"/>
	<path style="fill:#A7A5AC;" d="M288.063,356.695h-48.094c-6.353,0-11.523,5.169-11.523,11.523v16.031
		c0,6.353,5.169,11.522,11.523,11.522h48.094c6.353,0,11.522-5.169,11.522-11.522v-16.031
		C299.585,361.863,294.416,356.695,288.063,356.695z M243.476,376.234c0-1.171,0.492-2.359,1.333-3.192
		c0.818-0.825,2.005-1.317,3.176-1.317s2.36,0.492,3.192,1.333c0.825,0.818,1.317,2.006,1.317,3.176
		c0,1.171-0.492,2.359-1.333,3.192c-0.818,0.825-2.005,1.317-3.176,1.317s-2.36-0.492-3.192-1.333
		C243.967,378.592,243.476,377.405,243.476,376.234z"/>
</g>
<path style="fill:#504B5A;" d="M151.796,332.648c-24.033,0-43.585,19.552-43.585,43.585s19.552,43.585,43.585,43.585
	s43.585-19.552,43.585-43.585S175.829,332.648,151.796,332.648z M172.337,376.234c0,11.326-9.214,20.54-20.54,20.54
	s-20.54-9.214-20.54-20.54s9.214-20.54,20.54-20.54c1.965,0,3.623,1.272,4.239,3.029c6.54,1.584,11.688,6.732,13.272,13.272
	C171.065,372.61,172.337,374.268,172.337,376.234z"/>
<path style="fill:#DCDBDE;" d="M156.036,358.722c-1.362-0.33-2.776-0.524-4.239-0.524c-9.944,0-18.035,8.091-18.035,18.035
	c0,9.944,8.091,18.035,18.035,18.035s18.035-8.091,18.035-18.035c0-1.463-0.194-2.877-0.524-4.239
	C167.724,365.453,162.576,360.306,156.036,358.722z"/>
<path style="fill:#504B5A;" d="M55.609,332.648c-24.033,0-43.585,19.552-43.585,43.585s19.552,43.585,43.585,43.585
	s43.585-19.552,43.585-43.585S79.642,332.648,55.609,332.648z M76.149,376.234c0,11.326-9.214,20.54-20.54,20.54
	s-20.54-9.214-20.54-20.54s9.214-20.54,20.54-20.54c1.965,0,3.623,1.272,4.239,3.029c6.541,1.584,11.688,6.732,13.272,13.272
	C74.877,372.61,76.149,374.268,76.149,376.234z"/>
<path style="fill:#DCDBDE;" d="M59.848,358.722c-1.363-0.33-2.776-0.524-4.239-0.524c-9.944,0-18.035,8.091-18.035,18.035
	c0,9.944,8.091,18.035,18.035,18.035s18.035-8.091,18.035-18.035c0-1.463-0.194-2.877-0.524-4.239
	C71.536,365.453,66.388,360.306,59.848,358.722z"/>
<path style="fill:#736F7B;" d="M459.569,234.228c-0.078-0.599-0.14-1.015-0.177-1.2c-3.091-15.11-9.398-29.485-19.374-41.304
	l-48.085-0.794l-0.665,40.296c-0.261,15.756,14.088,28.813,31.982,29.109c0,0,38.313,0.672,38.384,0.674
	C462.521,261.024,460.297,239.772,459.569,234.228z"/>
<path d="M512,264.014v104.204c0,8.567-6.964,15.53-15.53,15.53h-32.063c-0.341,0-0.681-0.03-1.012-0.08
	c-3.647,27.163-26.963,48.174-55.098,48.174c-28.115,0-51.4-20.971-55.088-48.094h-41.601v0.501
	c0,12.985-10.561,23.546-23.546,23.546h-48.094c-12.985,0-23.546-10.561-23.546-23.546v-0.501h-9.539
	c-3.687,27.123-26.973,48.094-55.088,48.094c-20.51,0-38.455-11.172-48.094-27.744c-9.639,16.572-27.584,27.744-48.094,27.744
	C24.949,431.842,0,406.893,0,376.234c0-15.991,6.793-30.429,17.644-40.579H15.53c-8.567,0-15.53-6.964-15.53-15.53V143.78
	c0-8.567,6.964-15.53,15.53-15.53h288.564c8.567,0,15.53,6.964,15.53,15.53v16.532h9.018v-46.651c0-4.419-1.723-8.567-4.839-11.693
	l-8.988-8.988c-2.936-2.936-2.936-7.685,0-10.621c2.936-2.936,7.685-2.936,10.621,0l8.988,8.988
	c5.962,5.962,9.248,13.887,9.248,22.314v46.651h14.889c4.318-4.91,10.641-8.016,17.674-8.016h66.149
	c16.262,0,31.101,10.2,36.942,25.37l32.173,83.653c0.02,0.05,0.03,0.11,0.05,0.16c0.06,0.15,0.11,0.311,0.15,0.461
	c0.03,0.1,0.06,0.2,0.08,0.311c0.03,0.13,0.06,0.261,0.09,0.391c0.02,0.13,0.04,0.271,0.06,0.401c0.01,0.1,0.03,0.21,0.04,0.321
	c0.01,0.16,0.02,0.311,0.02,0.471C511.99,263.894,512,263.954,512,264.014z M496.971,368.218V343.67h-8.517
	c-8.567,0-15.53-6.964-15.53-15.53v-8.016c0-8.567,6.964-15.53,15.53-15.53h8.517v-39.187l-0.731-1.894h-79.926
	c-17.404,0-31.562-14.158-31.562-31.562v-40.078c0-4.148,3.367-7.515,7.515-7.515H465.8l-0.501-1.293
	c-3.617-9.418-12.825-15.741-22.915-15.741h-66.149c-4.699,0-8.517,3.817-8.517,8.517v144.783h40.579
	c28.135,0,51.451,21.011,55.098,48.174c0.331-0.05,0.671-0.08,1.012-0.08h32.063C496.75,368.719,496.971,368.498,496.971,368.218z
	 M496.971,328.641v-9.018h-8.517c-0.261,0-0.501,0.24-0.501,0.501v8.016c0,0.26,0.24,0.501,0.501,0.501H496.971z M490.458,248.484
	l-18.877-49.096h-71.8v32.564c0,9.118,7.414,16.532,16.532,16.532H490.458z M448.877,376.234c0-22.374-18.206-40.579-40.579-40.579
	s-40.579,18.206-40.579,40.579s18.206,40.579,40.579,40.579S448.877,398.607,448.877,376.234z M370.333,335.654H312.11H189.761
	c9.118,8.537,15.36,20.089,17.123,33.065h9.539v-0.501c0-12.985,10.561-23.546,23.546-23.546h48.094
	c12.985,0,23.546,10.561,23.546,23.546v0.501h41.601C354.973,355.744,361.216,344.191,370.333,335.654z M352.689,175.842
	c0-0.17,0.01-0.331,0.01-0.501h-33.075v145.284h33.065V175.842z M304.595,320.625V143.78c0-0.281-0.22-0.501-0.501-0.501H15.53
	c-0.281,0-0.501,0.22-0.501,0.501v176.344c0,0.281,0.22,0.501,0.501,0.501H304.595z M296.579,384.249v-16.031
	c0-4.699-3.817-8.517-8.517-8.517h-48.094c-4.699,0-8.517,3.817-8.517,8.517v16.031c0,4.699,3.817,8.517,8.517,8.517h48.094
	C292.762,392.766,296.579,388.948,296.579,384.249z M192.376,376.234c0-22.374-18.206-40.579-40.579-40.579
	s-40.579,18.206-40.579,40.579s18.206,40.579,40.579,40.579S192.376,398.607,192.376,376.234z M113.832,335.654h-20.26
	c3.968,3.707,7.384,7.996,10.13,12.715C106.448,343.65,109.865,339.362,113.832,335.654z M96.188,376.234
	c0-22.374-18.206-40.579-40.579-40.579s-40.579,18.206-40.579,40.579s18.206,40.579,40.579,40.579S96.188,398.607,96.188,376.234z
	 M416.814,376.234c0,4.699-3.817,8.517-8.517,8.517s-8.517-3.817-8.517-8.517s3.817-8.517,8.517-8.517
	c4.148,0,7.515-3.367,7.515-7.515c0-4.148-3.367-7.515-7.515-7.515c-12.985,0-23.546,10.561-23.546,23.546
	s10.561,23.546,23.546,23.546s23.546-10.561,23.546-23.546c0-4.148-3.367-7.515-7.515-7.515
	C420.181,368.719,416.814,372.085,416.814,376.234z M247.984,368.719c-1.974,0-3.918,0.802-5.31,2.204
	c-1.403,1.393-2.204,3.336-2.204,5.31c0,1.974,0.802,3.918,2.204,5.31c1.393,1.403,3.337,2.204,5.31,2.204s3.918-0.802,5.31-2.204
	c1.403-1.393,2.204-3.337,2.204-5.31c0-1.974-0.802-3.918-2.204-5.31C251.902,369.52,249.958,368.719,247.984,368.719z
	 M160.313,376.234c0,4.699-3.817,8.517-8.517,8.517c-4.699,0-8.517-3.817-8.517-8.517s3.817-8.517,8.517-8.517
	c4.148,0,7.515-3.367,7.515-7.515c0-4.148-3.367-7.515-7.515-7.515c-12.985,0-23.546,10.561-23.546,23.546
	s10.561,23.546,23.546,23.546s23.546-10.561,23.546-23.546c0-4.148-3.367-7.515-7.515-7.515S160.313,372.085,160.313,376.234z
	 M64.125,376.234c0,4.699-3.817,8.517-8.517,8.517s-8.517-3.817-8.517-8.517s3.817-8.517,8.517-8.517
	c4.148,0,7.515-3.367,7.515-7.515c0-4.148-3.367-7.515-7.515-7.515c-12.985,0-23.546,10.561-23.546,23.546
	s10.561,23.546,23.546,23.546s23.546-10.561,23.546-23.546c0-4.148-3.367-7.515-7.515-7.515S64.125,372.085,64.125,376.234z"/>
<g>
</g>
<g>
</g>
<g>
</g>
<g>
</g>
<g>
</g>
<g>
</g>
<g>
</g>
<g>
</g>
<g>
</g>
<g>
</g>
<g>
</g>
<g>
</g>
<g>
</g>
<g>
</g>
<g>
</g>
</svg>
