<?xml version="1.0" encoding="iso-8859-1"?>
<!-- Generator: Adobe Illustrator 19.0.0, SVG Export Plug-In . SVG Version: 6.00 Build 0)  -->
<svg version="1.1" id="Capa_1" xmlns="http://www.w3.org/2000/svg" xmlns:xlink="http://www.w3.org/1999/xlink" x="0px" y="0px"
	 viewBox="0 0 464 464" style="enable-background:new 0 0 464 464;" xml:space="preserve">
<path style="fill:#DBDBDB;" d="M350.664,272H464v192H350.664V272z"/>
<g>
	<path style="fill:#4799CF;" d="M400,336h32v32h-32V336z"/>
	<path style="fill:#4799CF;" d="M400,400h32v32h-32V400z"/>
</g>
<path style="fill:#B9B9B9;" d="M368,272h96v32h-96V272z"/>
<path style="fill:#6C7175;" d="M368,304h96v16h-96V304z"/>
<path style="fill:#DBDBDB;" d="M0,272h112.664v192H0V272z"/>
<g>
	<path style="fill:#4799CF;" d="M32,336h32v32H32V336z"/>
	<path style="fill:#4799CF;" d="M32,400h32v32H32V400z"/>
</g>
<path style="fill:#B9B9B9;" d="M0,272h96v32H0V272z"/>
<path style="fill:#6C7175;" d="M0,304h96v16H0V304z"/>
<path style="fill:#F0F0F0;" d="M96,88h272v376H96V88z"/>
<path style="fill:#32B39B;" d="M96,88h272v96H96V88z"/>
<path style="fill:#DBDBDB;" d="M96,184h272v16H96V184z"/>
<g>
	<circle style="fill:#ECC45F;" cx="232" cy="96" r="96"/>
	<circle style="fill:#ECC45F;" cx="232" cy="96" r="96"/>
</g>
<path style="fill:#F4CA62;" d="M232,0c-49.981,0.016-91.578,38.398-95.608,88.216v0.88c4.879,52.772,51.614,91.597,104.387,86.718
	c46.429-4.293,83.053-41.339,86.813-87.814C323.457,38.273,281.898,0.016,232,0L232,0z"/>
<path style="fill:#289F87;" d="M288,72h-32V40h-48v32h-32v48h32v32h48v-32h32V72z"/>
<path style="fill:#B9B9B9;" d="M200,416h64v48h-64V416z"/>
<g>
	<path style="fill:#6CBAE5;" d="M216,224h32v32h-32V224z"/>
	<path style="fill:#6CBAE5;" d="M216,288h32v32h-32V288z"/>
	<path style="fill:#6CBAE5;" d="M280,224h32v32h-32V224z"/>
	<path style="fill:#6CBAE5;" d="M280,288h32v32h-32V288z"/>
	<path style="fill:#6CBAE5;" d="M280,352h32v32h-32V352z"/>
	<path style="fill:#6CBAE5;" d="M216,352h32v32h-32V352z"/>
	<path style="fill:#6CBAE5;" d="M152,352h32v32h-32V352z"/>
	<path style="fill:#6CBAE5;" d="M152,224h32v32h-32V224z"/>
	<path style="fill:#6CBAE5;" d="M152,288h32v32h-32V288z"/>
</g>
<g>
</g>
<g>
</g>
<g>
</g>
<g>
</g>
<g>
</g>
<g>
</g>
<g>
</g>
<g>
</g>
<g>
</g>
<g>
</g>
<g>
</g>
<g>
</g>
<g>
</g>
<g>
</g>
<g>
</g>
</svg>
