<svg id="Layer_1" enable-background="new 0 0 512 512" height="512" viewBox="0 0 512 512" width="512" xmlns="http://www.w3.org/2000/svg">
<g>
    <g>
        <path d="m23.5 397.422 116.25 107.078h232.5l116.25-107.078" fill="none"/>
        <path d="m372.25 7.5h-232.5l-116.25 107.078 116.25 107.078h232.5l116.25-107.078z" fill="#ff8a94"/>
        <path d="m139.75 221.656h232.5v282.844h-232.5z" fill="#fc4755"/>
        <path d="m488.5 114.578v282.844l-116.25 107.078v-282.844z" fill="#ff7883"/>
        <path d="m438.5 160.633v282.789l-66.25 61.023v.055l116.25-107.078v-282.844z" fill="#fc4755"/>
        <path d="m23.5 114.578v282.844l116.25 107.078v-282.844z" fill="#ff3d4d"/>
    </g>
    <path d="m495.959 113.798c-.202-1.8-1.043-3.506-2.378-4.737l-116.25-107.078c-1.385-1.275-3.198-1.983-5.081-1.983h-232.5c-1.883 0-3.696.708-5.081 1.983l-116.25 107.079c-1.525 1.406-2.419 3.442-2.419 5.517v282.844c0 2.075.894 4.111 2.419 5.517l116.25 107.078c1.372 1.264 3.216 1.983 5.081 1.983h232.5c1.865 0 3.709-.719 5.081-1.983l116.25-107.078c1.525-1.405 2.419-3.442 2.419-5.517v-282.845c0-.263-.014-.523-.041-.78zm-390.821 65.78c-7.133-6.57-17.294 4.463-10.162 11.033l37.274 34.333v262.45l-101.25-93.261v-262.45l34.699 31.961c7.133 6.569 17.295-4.463 10.162-11.033l-41.291-38.033 108.108-99.578h226.645l108.107 99.578-108.107 99.578h-226.645zm375.862 214.555-101.25 93.262v-36.434c0-9.697-15-9.697-15 0v46.039h-217.5v-267.844h217.5v181.844c0 9.697 15 9.697 15 0v-186.055l101.25-93.262z"/>
</g>
</svg>